<svg width="376" height="157" xmlns="http://www.w3.org/2000/svg" xmlns:xlink="http://www.w3.org/1999/xlink"><defs><path id="a" d="M0 0h376v24H0z"/><path d="M0 73V22C0 9.85 9.85 0 22 0s22 9.85 22 22v51" id="d"/><filter x="-9.9%" y="-299.9%" width="119.8%" height="699.9%" filterUnits="objectBoundingBox" id="b"><feGaussianBlur stdDeviation="8" in="SourceGraphic"/></filter></defs><g fill="none" fill-rule="evenodd"><path d="M111.684 37v69.044h15.252v19.188h-15.252l-.001 7.768h-22.14l.001-7.768H41v-21.32L90.856 37h20.828zm159.464 77.572c.11 3.061.602 5.986 1.476 8.774.875 2.788 2.132 5.193 3.772 7.216a17.396 17.396 0 002.411 2.438l-26.639.001a41.968 41.968 0 01-.29-.717c-2.022-5.139-2.979-11.043-2.87-17.712h22.14zM291.484 37c4.592 0 9.184.683 13.776 2.05 4.592 1.367 8.72 3.417 12.382 6.15a33.294 33.294 0 018.938 10.004c2.296 3.936 3.444 8.473 3.444 13.612 0 5.576-1.339 10.496-4.018 14.76-2.678 4.264-6.696 7.161-12.054 8.692v.328c6.342 1.421 11.316 4.483 14.924 9.184 3.608 4.701 5.412 10.332 5.412 16.892 0 5.283-.907 10.059-2.72 14.33h-27.71c.252-.205.501-.417.746-.636 3.608-3.225 5.412-7.626 5.412-13.202 0-4.373-.847-7.708-2.542-10.004-1.694-2.296-3.854-3.963-6.478-5.002-2.624-1.039-5.494-1.64-8.61-1.804a170.31 170.31 0 00-8.938-.246v-16.4c2.515.219 5.194.219 8.036 0 2.843-.219 5.494-.847 7.954-1.886s4.483-2.542 6.068-4.51c1.586-1.968 2.378-4.592 2.378-7.872 0-4.92-1.64-8.692-4.92-11.316-3.28-2.624-7.052-3.936-11.316-3.936-5.904 0-10.359 1.94-13.366 5.822-3.006 3.881-4.455 8.774-4.346 14.678h-22.14c.22-5.904 1.285-11.289 3.198-16.154 1.914-4.865 4.592-9.047 8.036-12.546 3.444-3.499 7.572-6.205 12.382-8.118 4.811-1.913 10.168-2.87 16.072-2.87zM89.544 66.192h-.492l-29.684 39.852h30.176V66.192z" fill="#69F" fill-rule="nonzero"/><g transform="translate(0 133)"><mask id="c" fill="#fff"><use xlink:href="#a"/></mask><use fill="#FFF" xlink:href="#a"/><path d="M111.684 0v8h-22.14V0h22.14zm219.078 1.745a36.577 36.577 0 01-3.945 6.257h-70.145c-1.786-2.402-3.287-5.07-4.504-8.002h26.638a18.669 18.669 0 003.74 2.4c2.46 1.203 5.385 1.805 8.774 1.805 4.893 0 9.072-1.402 12.54-4.205h27.708c-.251.592-.52 1.173-.806 1.745z" fill="#66A3FF" fill-rule="nonzero" opacity=".488" filter="url(#b)" mask="url(#c)"/></g><path stroke="#4072EE" stroke-width=".5" d="M0 133h376"/><path d="M188 37c24.853 0 45 20.147 45 45v51h-90V82c0-24.853 20.147-45 45-45z" fill="#69F"/><g transform="translate(166 60)"><mask id="e" fill="#fff"><use xlink:href="#d"/></mask><use stroke="#4072EE" stroke-width=".5" fill="#FFF" xlink:href="#d"/><path stroke="#4072EE" stroke-width=".5" opacity=".123" mask="url(#e)" d="M22 0v73M15 0v73M8 0v73M29 0v73m7-73v73"/></g><path fill="#386DFF" d="M207 87h3v6h-3zm0 34h3v6h-3z"/><circle stroke="#7BA7FF" fill-opacity=".298" fill="#A2CEFF" cx="188" cy="78" r="9"/><circle stroke="#7BA7FF" fill="#A1CDFD" cx="188" cy="78" r="6"/><circle stroke="#7BA7FF" fill-opacity=".298" fill="#A2CEFF" cx="175" cy="102" r="2"/><circle stroke="#7BA7FF" fill="#E3F0FF" cx="175" cy="111" r="3"/><path stroke="#7BA7FF" fill="#E3F0FF" d="M175 109.5h9v3h-9z"/><path d="M35 69.5a1.5 1.5 0 011.5 1.5v6a1.5 1.5 0 01-1.5 1.5H17a1.5 1.5 0 01-1.5-1.5v-6a1.5 1.5 0 011.5-1.5h18zm0 1H17a.5.5 0 00-.5.5v6a.5.5 0 00.5.5h18a.5.5 0 00.5-.5v-6a.5.5 0 00-.5-.5zm119-50a1.5 1.5 0 011.5 1.5v6a1.5 1.5 0 01-1.5 1.5h-18a1.5 1.5 0 01-1.5-1.5v-6a1.5 1.5 0 011.5-1.5h18zm0 1h-18a.5.5 0 00-.5.5v6a.5.5 0 00.5.5h18a.5.5 0 00.5-.5v-6a.5.5 0 00-.5-.5zm98-21a1.5 1.5 0 011.5 1.5v6a1.5 1.5 0 01-1.5 1.5h-18a1.5 1.5 0 01-1.5-1.5V2A1.5 1.5 0 01234 .5h18zm0 1h-18a.5.5 0 00-.5.5v6a.5.5 0 00.5.5h18a.5.5 0 00.5-.5V2a.5.5 0 00-.5-.5zm108 83a1.5 1.5 0 011.5 1.5v6a1.5 1.5 0 01-1.5 1.5h-18a1.5 1.5 0 01-1.5-1.5v-6a1.5 1.5 0 011.5-1.5h18zm0 1h-18a.5.5 0 00-.5.5v6a.5.5 0 00.5.5h18a.5.5 0 00.5-.5v-6a.5.5 0 00-.5-.5z" fill="#7BA7FF" fill-rule="nonzero"/><path d="M352 92.5a1.5 1.5 0 011.5 1.5v6a1.5 1.5 0 01-1.5 1.5h-18a1.5 1.5 0 01-1.5-1.5v-6a1.5 1.5 0 011.5-1.5h18zm0 1h-18a.5.5 0 00-.5.5v6a.5.5 0 00.5.5h18a.5.5 0 00.5-.5v-6a.5.5 0 00-.5-.5zm-92-85a1.5 1.5 0 011.5 1.5v6a1.5 1.5 0 01-1.5 1.5h-18a1.5 1.5 0 01-1.5-1.5v-6a1.5 1.5 0 011.5-1.5h18zm0 1h-18a.5.5 0 00-.5.5v6a.5.5 0 00.5.5h18a.5.5 0 00.5-.5v-6a.5.5 0 00-.5-.5zm-114 19a1.5 1.5 0 011.5 1.5v6a1.5 1.5 0 01-1.5 1.5h-18a1.5 1.5 0 01-1.5-1.5v-6a1.5 1.5 0 011.5-1.5h18zm0 1h-18a.5.5 0 00-.5.5v6a.5.5 0 00.5.5h18a.5.5 0 00.5-.5v-6a.5.5 0 00-.5-.5zm-102 48a1.5 1.5 0 011.5 1.5v6a1.5 1.5 0 01-1.5 1.5H26a1.5 1.5 0 01-1.5-1.5v-6a1.5 1.5 0 011.5-1.5h18zm0 1H26a.5.5 0 00-.5.5v6a.5.5 0 00.5.5h18a.5.5 0 00.5-.5v-6a.5.5 0 00-.5-.5z" fill="#7BA7FF" fill-rule="nonzero"/><path d="M35 85.5a1.5 1.5 0 011.5 1.5v6a1.5 1.5 0 01-1.5 1.5H17a1.5 1.5 0 01-1.5-1.5v-6a1.5 1.5 0 011.5-1.5h18zm0 1H17a.5.5 0 00-.5.5v6a.5.5 0 00.5.5h18a.5.5 0 00.5-.5v-6a.5.5 0 00-.5-.5z" fill="#7BA7FF" fill-rule="nonzero"/></g></svg>