<svg width="376" height="157" xmlns="http://www.w3.org/2000/svg" xmlns:xlink="http://www.w3.org/1999/xlink"><defs><filter x="-108.4%" y="-300%" width="316.8%" height="700%" filterUnits="objectBoundingBox" id="b"><feGaussianBlur stdDeviation="8" in="SourceGraphic"/></filter><filter x="-108.4%" y="-300%" width="316.8%" height="700%" filterUnits="objectBoundingBox" id="d"><feGaussianBlur stdDeviation="8" in="SourceGraphic"/></filter><path id="a" d="M0 0h376v24H0z"/><path d="M0 73V22C0 9.85 9.85 0 22 0s22 9.85 22 22v51" id="e"/></defs><g fill="none" fill-rule="evenodd"><path d="M111.684 37v69.044h15.252v19.188h-15.252l-.001 7.768h-22.14l.001-7.768H41v-21.32L90.856 37h20.828zm-22.14 29.192h-.492l-29.684 39.852h30.176V66.192zM319.684 37v69.044h15.252v19.188h-15.252l-.001 7.768h-22.14l.001-7.768H249v-21.32L298.856 37h20.828zm-22.14 29.192h-.492l-29.684 39.852h30.176V66.192z" fill="#69F" fill-rule="nonzero"/><g transform="translate(0 133)"><mask id="c" fill="#fff"><use xlink:href="#a"/></mask><use fill="#FFF" xlink:href="#a"/><path d="M111.684 0v8h-22.14V0h22.14z" fill="#66A3FF" fill-rule="nonzero" opacity=".488" filter="url(#b)" mask="url(#c)"/><path d="M319.64 0v8H297.5V0h22.14z" fill="#66A3FF" fill-rule="nonzero" opacity=".488" filter="url(#d)" mask="url(#c)"/></g><path stroke="#4072EE" stroke-width=".5" d="M0 133h376"/><path d="M188 37c24.853 0 45 20.147 45 45v51h-90V82c0-24.853 20.147-45 45-45z" fill="#69F"/><g transform="translate(166 60)"><mask id="f" fill="#fff"><use xlink:href="#e"/></mask><use stroke="#4072EE" stroke-width=".5" fill="#FFF" xlink:href="#e"/><path stroke="#4072EE" stroke-width=".5" opacity=".123" mask="url(#f)" d="M22 0v73M15 0v73M8 0v73M29 0v73m7-73v73"/></g><path fill="#386DFF" d="M207 87h3v6h-3zm0 34h3v6h-3z"/><circle stroke="#7BA7FF" fill-opacity=".298" fill="#A2CEFF" cx="188" cy="78" r="9"/><circle stroke="#7BA7FF" fill="#A1CDFD" cx="188" cy="78" r="6"/><circle stroke="#7BA7FF" fill-opacity=".298" fill="#A2CEFF" cx="175" cy="102" r="2"/><circle stroke="#7BA7FF" fill="#E3F0FF" cx="175" cy="111" r="3"/><path stroke="#7BA7FF" fill="#E3F0FF" d="M175 109.5h9v3h-9z"/><path d="M35 69.5a1.5 1.5 0 011.5 1.5v6a1.5 1.5 0 01-1.5 1.5H17a1.5 1.5 0 01-1.5-1.5v-6a1.5 1.5 0 011.5-1.5h18zm0 1H17a.5.5 0 00-.5.5v6a.5.5 0 00.5.5h18a.5.5 0 00.5-.5v-6a.5.5 0 00-.5-.5zm119-50a1.5 1.5 0 011.5 1.5v6a1.5 1.5 0 01-1.5 1.5h-18a1.5 1.5 0 01-1.5-1.5v-6a1.5 1.5 0 011.5-1.5h18zm0 1h-18a.5.5 0 00-.5.5v6a.5.5 0 00.5.5h18a.5.5 0 00.5-.5v-6a.5.5 0 00-.5-.5zm98-21a1.5 1.5 0 011.5 1.5v6a1.5 1.5 0 01-1.5 1.5h-18a1.5 1.5 0 01-1.5-1.5V2A1.5 1.5 0 01234 .5h18zm0 1h-18a.5.5 0 00-.5.5v6a.5.5 0 00.5.5h18a.5.5 0 00.5-.5V2a.5.5 0 00-.5-.5zm108 83a1.5 1.5 0 011.5 1.5v6a1.5 1.5 0 01-1.5 1.5h-18a1.5 1.5 0 01-1.5-1.5v-6a1.5 1.5 0 011.5-1.5h18zm0 1h-18a.5.5 0 00-.5.5v6a.5.5 0 00.5.5h18a.5.5 0 00.5-.5v-6a.5.5 0 00-.5-.5z" fill="#7BA7FF" fill-rule="nonzero"/><path d="M352 92.5a1.5 1.5 0 011.5 1.5v6a1.5 1.5 0 01-1.5 1.5h-18a1.5 1.5 0 01-1.5-1.5v-6a1.5 1.5 0 011.5-1.5h18zm0 1h-18a.5.5 0 00-.5.5v6a.5.5 0 00.5.5h18a.5.5 0 00.5-.5v-6a.5.5 0 00-.5-.5zm-92-85a1.5 1.5 0 011.5 1.5v6a1.5 1.5 0 01-1.5 1.5h-18a1.5 1.5 0 01-1.5-1.5v-6a1.5 1.5 0 011.5-1.5h18zm0 1h-18a.5.5 0 00-.5.5v6a.5.5 0 00.5.5h18a.5.5 0 00.5-.5v-6a.5.5 0 00-.5-.5zm-114 19a1.5 1.5 0 011.5 1.5v6a1.5 1.5 0 01-1.5 1.5h-18a1.5 1.5 0 01-1.5-1.5v-6a1.5 1.5 0 011.5-1.5h18zm0 1h-18a.5.5 0 00-.5.5v6a.5.5 0 00.5.5h18a.5.5 0 00.5-.5v-6a.5.5 0 00-.5-.5zm-102 48a1.5 1.5 0 011.5 1.5v6a1.5 1.5 0 01-1.5 1.5H26a1.5 1.5 0 01-1.5-1.5v-6a1.5 1.5 0 011.5-1.5h18zm0 1H26a.5.5 0 00-.5.5v6a.5.5 0 00.5.5h18a.5.5 0 00.5-.5v-6a.5.5 0 00-.5-.5z" fill="#7BA7FF" fill-rule="nonzero"/><path d="M35 85.5a1.5 1.5 0 011.5 1.5v6a1.5 1.5 0 01-1.5 1.5H17a1.5 1.5 0 01-1.5-1.5v-6a1.5 1.5 0 011.5-1.5h18zm0 1H17a.5.5 0 00-.5.5v6a.5.5 0 00.5.5h18a.5.5 0 00.5-.5v-6a.5.5 0 00-.5-.5z" fill="#7BA7FF" fill-rule="nonzero"/></g></svg>