<svg width="64" height="64" viewBox="0 0 64 64" xmlns="http://www.w3.org/2000/svg"><defs><linearGradient x1="50%" y1="0%" x2="50%" y2="100%" id="a"><stop stop-color="#32ADFF" offset="0%"/><stop stop-color="#06F" offset="100%"/></linearGradient><linearGradient x1="50%" y1="2.185%" x2="50%" y2="100%" id="b"><stop stop-color="#20A6FF" offset="0%"/><stop stop-color="#005EEB" offset="100%"/></linearGradient><linearGradient x1="50%" y1="2.185%" x2="50%" y2="100%" id="c"><stop stop-color="#005EEB" offset="0%"/><stop stop-color="#20A6FF" offset="100%"/></linearGradient><linearGradient x1="50%" y1="0%" x2="50%" y2="99.839%" id="d"><stop stop-color="#70E0A8" offset="0%"/><stop stop-color="#27B8C2" offset="100%"/></linearGradient></defs><g fill="none" fill-rule="evenodd"><path d="M42 26c5.779.182 10.409 4.923 10.409 10.745 0 .42-.025.838-.074 1.255L50.96 49.7l.04-.407c.021-.272.032-.544.032-.817 0-5.692-4.539-10.323-10.194-10.473L40.694 38h-18.36l-1.375 11.7a6 6 0 0 1-11.94-1.178l.022-.224L13.04 14.3l-.04.407c-.021.272-.032.544-.032.817 0 5.692 4.539 10.323 10.194 10.473L42 26z" fill="url(#a)"/><path d="M13 14.707l.04-.407a6 6 0 0 1 11.94 1.178l-.022.224-1.21 10.3h-.302A10.48 10.48 0 0 1 13 14.707z" fill="url(#b)"/><path d="M50.959 49.701a6 6 0 0 1-11.94-1.178l.022-.224L40.251 38h.302c5.787 0 10.477 4.69 10.478 10.477 0 .41-.024.818-.072 1.224z" fill="url(#c)"/><path d="M42.017 22.998l1.024-8.699a6 6 0 0 1 11.94 1.178l-.022.224-1.412 11.997a10.748 10.748 0 0 0-8.205-4.682L45 22.999h-2.983l1.024-8.7-1.024 8.7z" fill="url(#d)"/><path d="M49.232 12.003l.117.006a1 1 0 0 1 .883.994l-.007.116-.221 1.88L52 15a1 1 0 0 1 .993.883L53 16a1 1 0 0 1-.883.993L52 17h-2.231l-.249 2.12a1 1 0 0 1-.993.883l-.117-.006a1 1 0 0 1-.883-.994l.007-.116.221-1.887H46a1 1 0 0 1-.993-.883L45 16a1 1 0 0 1 .883-.993L46 15h1.99l.249-2.114a1 1 0 0 1 .993-.883z" fill="#FFF" fill-rule="nonzero"/></g></svg>