<svg xmlns="http://www.w3.org/2000/svg" viewBox="0 0 20 20" class="design-iconfont"><g fill="none" fill-rule="evenodd"><path fill="#E6E6E6" d="M10.842 17.493l6.519-2.966-1.249-.442-6.37 2.909zm-3.777-1.765l6.387-2.825-1.146-.533-6.309 2.885z"/><path d="M11.155 17.648l-1.413-.678 6.249-2.855-2.358-1.054-6.242 2.812-1.376-.606 6.2-2.837-2.218-1.006-9.503 4.334c.138.202.332.36.558.454l6.424 2.933.466.213c.662.221 1.357.33 2.055.32a5.921 5.921 0 002.133-.357l.46-.2 6.437-3.03a.915.915 0 00.521-.406l-2.096-.885-6.297 2.848z" fill="#F5F5F5" fill-rule="nonzero"/><path d="M10.106 7.06l-.109 1.122-5.018 2.34a.964.964 0 00-.546.466l.006-.01v.01l-.63.29V9.946l.027-.007-.009-.017 6.28-2.86zm.176-4.224l-.279 1.212-5.14 2.425a.733.733 0 00-.43.34l.006-.01v.001l-.006.008v-.006l-.606.275v-1.3l6.455-2.945z" fill="#BFBFBF"/><path d="M.3 5.745v9.407c.01.215.076.424.194.606l9.503-4.334V8.442L3.809 11.28V9.945L9.997 7.11V4.242L3.815 7.091V5.78l6.182-2.805V0L1.312 4C.3 4.46.3 4.703.3 5.745z" fill="#D9D9D9" fill-rule="nonzero"/><path d="M19.476 7.46c-.243.11-.503.243-.74.352a.503.503 0 01-.478-.036l-4.71-2.103V4.552l6.007 2.72c.09.067.036.128-.08.189zm.012 4.188l-.715.322c-.303.145-.503 0-.812-.122l-4.413-1.933V8.77l6.091 2.745a.273.273 0 01-.127.133h-.024z" fill="#AA0202"/><path d="M19.548 15.758l-9.551-4.334V0l9.273 4.279c.382.121.454.521.454.885v1.83a.952.952 0 01-.09.321l-6.061-2.763V5.97l5.26 2.345c.91.406.915.54.915 1.57v1.321a.873.873 0 01-.084.291L13.603 8.77v1.406l5.57 2.551c.533.243.551.412.551 1.018v1.407a1.212 1.212 0 01-.176.606z" fill="#D40000"/></g></svg>